# xmcd
#
# Track frame offsets: 
#        150
#        12750
#        26925
#        37725
#        50625
#        67350
#        81450
#        91350
#        105225
#        118125
#        130350
#        142462
#        159150
#        172200
#        189450
#
# Disc length: 2718 seconds
#
# Revision: 0
# Processed by: cddbd v1.5.2PL0 Copyright (c) Steve Scherf et al.
# Submitted via: ExactAudioCopyFreeDBPlugin 1.0
#
DISCID=da0a9c0f
DTITLE=Constantin Luger - A Tribute To Johnny Cash
DYEAR=2012
DGENRE=Country
TTITLE0=Folsom Prison Blues
TTITLE1=Tennessee Flat Top Box
TTITLE2=Hey Porter
TTITLE3=Man In Black
TTITLE4=Ghost Riders In The Sky
TTITLE5=Don't Take Your Guns To Town
TTITLE6=Get Rhythm
TTITLE7=Orange Blossom Special
TTITLE8=I Walk The Line
TTITLE9=Cocaine Blues
TTITLE10=San Quentin
TTITLE11=A Boy Named Sue
TTITLE12=Ring Of Fire
TTITLE13=Hurt
TTITLE14=Folsom Prisom Blues (Live)
EXTD=
EXTT0=
EXTT1=
EXTT2=
EXTT3=
EXTT4=
EXTT5=
EXTT6=
EXTT7=
EXTT8=
EXTT9=
EXTT10=
EXTT11=
EXTT12=
EXTT13=
EXTT14=
PLAYORDER=
